<?xml version="1.0" encoding="utf-8"?>
<!-- Generator: Adobe Illustrator 22.1.0, SVG Export Plug-In . SVG Version: 6.00 Build 0)  -->
<svg version="1.1" id="Layer_1" xmlns="http://www.w3.org/2000/svg" xmlns:xlink="http://www.w3.org/1999/xlink" x="0px" y="0px"
	 viewBox="0 0 200 90" style="enable-background:new 0 0 200 90;" xml:space="preserve">
<g>
	<path d="M140.8,40.9l-2.3-2.3c-0.1-0.1-0.1-0.1-0.2-0.2L105.7,5.6c-2.8-2.8-7.3-2.8-10.1,0l-2.3,2.3c-2.8,2.8-2.8,7.3,0,10.1
		l18,18.1H54.5c-5.2,0-9.5,4.3-9.5,9.5v0.7c0,4.2,3.4,7.6,7.6,7.6h60.3L94.8,72c-2.8,2.8-2.8,7.3,0,10.1l2.3,2.3
		c2.8,2.8,7.3,2.8,10.1,0L140.8,51C143.6,48.2,143.6,43.7,140.8,40.9z"/>
	<path d="M173.8,43.2l-1.6-1.7c0,0-0.1-0.1-0.1-0.1l-23.5-23.6c-2-2-5.3-2-7.3,0l-1.7,1.6c-2,2-2,5.3,0,7.3l20,20.1l-18.9,18.8
		c-2,2-2,5.3,0,7.3l1.6,1.7c2,2,5.3,2,7.3,0l24.2-24.1C175.8,48.5,175.8,45.2,173.8,43.2z"/>
	<path d="M195.4,45.2l-1-1c0,0-0.1,0-0.1-0.1l-13.6-13.6c-1.2-1.2-3.1-1.2-4.2,0l-1,1c-1.2,1.2-1.2,3,0,4.2l11.6,11.6l-10.9,10.9
		c-1.2,1.2-1.2,3.1,0,4.2l1,1c1.2,1.2,3,1.2,4.2,0l14-13.9C196.6,48.2,196.6,46.4,195.4,45.2z"/>
<circle cx="30.9" cy="45" r="8.9"/>
<circle cx="10.3" cy="45" r="6.5"/>
</g>
</svg>
