<?xml version="1.0" encoding="utf-8"?>
<!-- Generator: Adobe Illustrator 22.1.0, SVG Export Plug-In . SVG Version: 6.00 Build 0)  -->
<svg version="1.1" id="Layer_1" xmlns="http://www.w3.org/2000/svg" xmlns:xlink="http://www.w3.org/1999/xlink" x="0px" y="0px"
	 viewBox="0 0 200 90" style="enable-background:new 0 0 200 90;" xml:space="preserve">
<style type="text/css">
	.st0{fill:#306E9C;}
	.st1{fill:#15BCBC;}
	.st2{fill:#26B9EC;}
</style>
<g>
	<path class="st0" d="M141.7,40.8l-2.3-2.3c-0.1-0.1-0.1-0.1-0.2-0.2L105.8,4.7c-2.8-2.9-7.5-2.9-10.3,0l-2.3,2.3
		c-2.9,2.9-2.9,7.5,0,10.3l18.4,18.5h-58c-5.3,0-9.7,4.4-9.7,9.7v0.7c0,4.3,3.5,7.8,7.8,7.8h61.6L94.7,72.6c-2.9,2.8-2.9,7.5,0,10.3
		l2.3,2.3c2.9,2.9,7.5,2.9,10.3,0l34.3-34.2C144.5,48.3,144.5,43.6,141.7,40.8z"/>
	<path class="st1" d="M175.4,43.2l-1.7-1.7c0,0-0.1-0.1-0.2-0.1l-24.1-24.2c-2-2.1-5.4-2.1-7.5,0l-1.7,1.7c-2.1,2.1-2.1,5.4,0,7.5
		l20.5,20.6l-19.3,19.2c-2.1,2-2.1,5.4,0,7.5l1.7,1.7c2.1,2.1,5.4,2.1,7.5,0l24.7-24.6C177.5,48.6,177.5,45.2,175.4,43.2z"/>
	<path class="st2" d="M197.5,45.2l-1-1c0,0-0.1,0-0.1-0.1l-13.9-13.9c-1.2-1.2-3.1-1.2-4.3,0l-1,1c-1.2,1.2-1.2,3.1,0,4.3l11.8,11.9
		l-11.1,11.1c-1.2,1.2-1.2,3.1,0,4.3l1,1c1.2,1.2,3.1,1.2,4.3,0l14.3-14.2C198.7,48.3,198.7,46.4,197.5,45.2z"/>
</g>
<circle class="st1" cx="29.4" cy="45" r="9.1"/>
<circle class="st2" cx="8.3" cy="45" r="6.7"/>
</svg>
